/* XPM */
static char *_ecb513e43ce47348c9b87aff4134161bZv1RMwxcF726VA1[] = {
/* columns rows colors chars-per-pixel */
"32 32 228 2 ",
"   c #004D00",
".  c #005700",
"X  c #025E00",
"o  c #085F00",
"O  c #1A5200",
"+  c #105900",
"@  c #145B0D",
"#  c #016500",
"$  c #096100",
"%  c #026C00",
"&  c #0B6C01",
"*  c #076F0C",
"=  c #166000",
"-  c #166D05",
";  c #196704",
":  c #017501",
">  c #0B7402",
",  c #027B02",
"<  c #0C7B03",
"1  c #037708",
"2  c #037C0A",
"3  c #0C7C0A",
"4  c #0D740B",
"5  c #127506",
"6  c #197604",
"7  c #127C05",
"8  c #14760A",
"9  c #1E730A",
"0  c #127D0A",
"q  c #1A7C0D",
"w  c #0F7714",
"e  c #077E11",
"r  c #0E7E11",
"t  c #157D14",
"y  c #1B7810",
"u  c #187615",
"i  c #216100",
"p  c #21740D",
"a  c #267D14",
"s  c #028302",
"d  c #0A8303",
"f  c #018B02",
"g  c #0D8B03",
"h  c #02840B",
"j  c #0C840B",
"k  c #028B0B",
"l  c #0B8B0C",
"z  c #138503",
"x  c #128C04",
"c  c #198B03",
"v  c #12830C",
"b  c #1A840D",
"n  c #128B0C",
"m  c #1C8809",
"M  c #019302",
"N  c #099106",
"B  c #029B03",
"V  c #099D04",
"C  c #03920B",
"Z  c #0D920B",
"A  c #019C0A",
"S  c #0D9B0C",
"D  c #13940C",
"F  c #189209",
"G  c #149A0C",
"H  c #169307",
"J  c #0D8413",
"K  c #028D12",
"L  c #0C8C12",
"P  c #0A8F18",
"I  c #088615",
"U  c #1A8313",
"Y  c #138B13",
"T  c #1A8D13",
"R  c #14841C",
"E  c #1B8C18",
"W  c #178417",
"Q  c #009613",
"!  c #0D9613",
"~  c #059B13",
"^  c #0D9A13",
"/  c #0B9819",
"(  c #149313",
")  c #1A9213",
"_  c #149D12",
"`  c #1C9C14",
"'  c #1C951A",
"]  c #179819",
"[  c #1B9D1B",
"{  c #22850E",
"}  c #25970E",
"|  c #248212",
" . c #258A14",
".. c #2F881C",
"X. c #268717",
"o. c #398F1C",
"O. c #239412",
"+. c #249C16",
"@. c #2B9C15",
"#. c #23951B",
"$. c #2A951D",
"%. c #239C1A",
"&. c #2C9C1E",
"*. c #33921B",
"=. c #38981F",
"-. c #02A502",
";. c #01AD02",
":. c #04A309",
">. c #0AA90D",
",. c #0CAE03",
"<. c #02B301",
"1. c #00B409",
"2. c #07B809",
"3. c #09AF11",
"4. c #09A314",
"5. c #15A413",
"6. c #1CA515",
"7. c #1CA31B",
"8. c #16A618",
"9. c #04B713",
"0. c #19B81E",
"q. c #1BB418",
"w. c #20A317",
"e. c #2AA213",
"r. c #25A51B",
"t. c #2AA21C",
"y. c #23AC1A",
"u. c #2AAA1C",
"i. c #30A41D",
"p. c #1D8820",
"a. c #1C8624",
"s. c #1F9922",
"d. c #208D24",
"f. c #378F29",
"g. c #249720",
"h. c #219F24",
"j. c #2D9B25",
"k. c #2A9828",
"l. c #329C25",
"z. c #3B9C24",
"x. c #349B2B",
"c. c #389C28",
"v. c #1DAE23",
"b. c #26A226",
"n. c #2AA324",
"m. c #25AC23",
"M. c #2DAC24",
"N. c #2BA62B",
"B. c #2EA92C",
"V. c #35A222",
"C. c #3DA425",
"Z. c #34AD25",
"A. c #33A42B",
"S. c #3DA42B",
"D. c #34AC2B",
"F. c #3BAC2B",
"G. c #3AAB25",
"H. c #2AB125",
"J. c #2CB922",
"K. c #2DB52B",
"L. c #2CBA2B",
"P. c #23B727",
"I. c #30BC27",
"U. c #35B42D",
"Y. c #3AB42D",
"T. c #37B528",
"R. c #27A730",
"E. c #36A333",
"W. c #39AD34",
"Q. c #2DB934",
"!. c #34B334",
"~. c #37BF31",
"^. c #3EBD3B",
"/. c #419929",
"(. c #40A82B",
"). c #47B22D",
"_. c #42A334",
"`. c #45AB34",
"'. c #46AD38",
"]. c #4DA93A",
"[. c #52AD36",
"{. c #45B436",
"}. c #48B035",
"|. c #45BB31",
" X c #49BD37",
".X c #45B23A",
"XX c #4DB53D",
"oX c #4FBD39",
"OX c #45BA38",
"+X c #53BA3B",
"@X c #59B83B",
"#X c #3FC32F",
"$X c #39C237",
"%X c #46C230",
"&X c #43C439",
"*X c #4CC739",
"=X c #4BCC3B",
"-X c #45C938",
";X c #53C33D",
":X c #55CA3D",
">X c #4DB544",
",X c #52B741",
"<X c #55BB44",
"1X c #56BA48",
"2X c #55AB52",
"3X c #61BD47",
"4X c #3EC745",
"5X c #48CB4B",
"6X c #52C444",
"7X c #5AC44C",
"8X c #55C94A",
"9X c #5AC748",
"0X c #55D34B",
"qX c #5EDE49",
"wX c #5AC951",
"eX c #63C54B",
"rX c #62C749",
"tX c #78CD4E",
"yX c #68CC54",
"uX c #73C757",
"iX c #62DC53",
"pX c #60DF5A",
"aX c #6AD759",
"sX c #75D75E",
"dX c #78DA5F",
"fX c #71DE5D",
"gX c #68E85E",
"hX c #77DA6D",
/* pixels */
"P.R.a.* : l Y w 7 d l ~ Q k f S L o O i 4 h I t , k s f v.L._ , ",
"8.b.d.J s f h % d , : h L k f f k d 9 9 r h 2 1 h h k f ^ 7.` Z ",
"s ' E.b.M f f L s , > 5 0 , s s M / Y v ( h : J 3 , h k s ! n.B.",
"H +.b.7.-.B M ! s g q p - % s ~ A ~ f l b.j % j.E , , h : d ' #.",
" X#.s M 2.2.-.f ! 3 8 p 9 8 l ^ ^ f , %.,X .& c.l.n , , , j 3 > ",
"}.$.g :.<.<.q.^.!.E & & q U 3 : V.Z s U.eXo.& U O.%.g s [ b.T j ",
"'.j.] >.;.-.y.7X'.' : : w v 0 < @Xi.6.U.+X=.z s x |.y.g H.U.F ) ",
"hXE., M <.-.g 6 U 0 2 e 2 J l.XXtX Xy.y.t.V.%.M H qX#Xg 7.G % , ",
"aXD., V q., u @ = c.( : g @.e.%X7XXX+X+.s J.=Xc ` -XZ.Y.F : w.: ",
",Xj.N 8.6., $   ; wX5X! +.`.;XaX{ o.[.V.D ~.iX).w.y.F M.d % F.G.",
"k.Y Z f s d v f.*.{.[ h n.+X`.C.> 6 o.*.g r. XC.D N 6.0Xt., ;X9X",
"J 2 ] , : ) j.yX9X#.% s {.].| b T > > < , l ( < M f K.gXZ.z ;X9X",
", J !.( s ) v A.C.l , Z #.6 & U 8.s : , h C k , C l ] m.s , OX6X",
"l ] D.%.n g , h % , K s % # , h k k Y ( K k h h s f f , : g N.U.",
"m.r.n v j , k K 2 h K h j E ] f s l q 3 j 2 , 2 : d g s ] m.! ! ",
"J.H., v W : P h R % 2 P l g M B l 3 o . 4 p.t u , n s s !.Q.f C ",
"X.# < , , d , D._.q a (.$.d f V G l , 2 E t > U A ;.;.,.g d B.m.",
"> , k.! : l F V. .. $.rX&.s G :.s n v 1 * > 0  .5.-.;.2.V Y W.U.",
"s ] ^.] s r.Z.c n # F.fX@.z Z.u.# : < 4 : 8 j.1X6XJ.<.2.A s j.V.",
"g Z y._ G =X*Xx x d Z.|.} @.;X;X=.m 7 b > # 0 l./.F B 1.B h .XyX",
"g s s S y.-X=Xe.g Y.u.d t.oX@XrX3X=.m < : > 0 # = > M 9.A 2 XXhX",
"O.c , _ u.6.u.u.u.gXT., F.6X=.C.@XXXF.x d OX1X- o > B 0./ : l.|.",
"+X}.7 w.&XD g G Z.iXY.g n.A.6 q 7X8X0XH.g F.1Xa ; > s G ( E W.B.",
"uX3X> +.pXK.N Z z +.D , d j > q ' z m.J.s d _.].2Xx.s < 7 t s.f ",
"wXB.( m.$XL.5.M k h ] ' : : T m M ` j.$.j , ( 8X:Xy.f s s j h k ",
"#.3 , j ( g s s , % j.7XV. .F.W.s d 7 3 : , ' wX=Xy.M f D n h s ",
"J 3 j Y d h l 7. .X z.sX(.c t.M.M n 0 & 2 2 W `.J.q.-.B l x Z ^ ",
"0 3 3 , : : ! b.c.#  .+XF : M M ! E q u R e 1 U V >.3.V g z ` L.",
"g.T 3 , : , L s.#.# j n.f f 4.M f 3 % > R I 1 0 f B :.A D O.+.7.",
"!.n.' l j j j I h : , ( l ^ 4.f k s % # e I 2 0 s s f M r.Z.` s ",
"G ` ` ( f , : , 2 h 3 3 3 3 , d A ^ j < I k , , j s s h Y &.%.! ",
"s G H.m.] s h l 2 R 4 & - $ $ ..f N n j ! C s , > Y ! , # < N.4X"
};
