/* XPM */
static char *c81af2c21e824dde98a5fe85d26be766Ci8f5mpQ1HOSsWPK[] = {
/* columns rows colors chars-per-pixel */
"32 32 197 2 ",
"   c None",
".  c #150F19",
"X  c #18131D",
"o  c #171019",
"O  c #0E0B19",
"+  c #1D1925",
"@  c #201F2B",
"#  c #261E22",
"$  c #1E2435",
"%  c #292226",
"&  c #25212B",
"*  c #382523",
"=  c #24293A",
"-  c #452421",
";  c #4E2C24",
":  c #482620",
">  c #572B25",
",  c #48322B",
"<  c #563329",
"1  c #5A352B",
"2  c #55392D",
"3  c #5C392C",
"4  c #573127",
"5  c #5F3C30",
"6  c #643A2D",
"7  c #6D3F2E",
"8  c #643E32",
"9  c #6E3E30",
"0  c #5C4235",
"q  c #72422E",
"w  c #624034",
"e  c #6D4434",
"r  c #6B4A3A",
"t  c #724534",
"y  c #724B36",
"u  c #734C3B",
"i  c #7A4C3A",
"p  c #76543D",
"a  c #7C543E",
"s  c #131556",
"d  c #1F375B",
"f  c #282D46",
"g  c #363E57",
"h  c #303050",
"j  c #161966",
"k  c #253D61",
"l  c #22257F",
"z  c #463D44",
"x  c #30435A",
"c  c #2A4265",
"v  c #2A436A",
"b  c #344A6C",
"n  c #384866",
"m  c #3C546A",
"M  c #3C4F71",
"N  c #3C5374",
"B  c #3F6179",
"V  c #4A4246",
"C  c #534649",
"Z  c #5A4B4C",
"A  c #57494C",
"S  c #504B55",
"D  c #53505F",
"F  c #604F4F",
"G  c #765441",
"H  c #7B5643",
"J  c #604F50",
"K  c #635151",
"L  c #40536F",
"P  c #505967",
"I  c #435374",
"U  c #4F5D79",
"Y  c #4B5B73",
"T  c #525D75",
"R  c #454671",
"E  c #4C677D",
"W  c #566377",
"Q  c #6D707C",
"!  c #76797E",
"~  c #78746D",
"^  c #824E3C",
"/  c #82543D",
"(  c #845A43",
")  c #835D4A",
"_  c #8A5D49",
"`  c #875B41",
"'  c #8A6248",
"]  c #936244",
"[  c #956A4B",
"{  c #9B6B4C",
"}  c #956749",
"|  c #876552",
" . c #9C6E50",
".. c #987659",
"X. c #A16D4C",
"o. c #A3724F",
"O. c #AD7C5C",
"+. c #A07651",
"@. c #B37E5C",
"#. c #827F77",
"$. c #74807A",
"%. c #A9805D",
"&. c #89857A",
"*. c #AE8360",
"=. c #A28263",
"-. c #B88862",
";. c #B7936D",
":. c #D88F4D",
">. c #232788",
",. c #2D3CA6",
"<. c #3A4FB1",
"1. c #444C86",
"2. c #4B6982",
"3. c #557B8D",
"4. c #587589",
"5. c #5A7B93",
"6. c #6D7E80",
"7. c #627D8B",
"8. c #777D83",
"9. c #3D5AD0",
"0. c #495ED2",
"q. c #4B70CB",
"w. c #546FDA",
"e. c #4C72D7",
"r. c #4964CD",
"t. c #5F879B",
"y. c #728C8D",
"u. c #668B9D",
"i. c #578AA2",
"p. c #5E95AD",
"a. c #5F9CB8",
"s. c #6986A6",
"d. c #699AAC",
"f. c #6696B0",
"g. c #75A1AD",
"h. c #6DA9B9",
"j. c #77A8BC",
"k. c #5586D7",
"l. c #7F9CCF",
"z. c #7E99D2",
"x. c #77ADC5",
"c. c #76B5C9",
"v. c #72ABD9",
"b. c #6DB1D1",
"n. c #78B8D7",
"m. c #6EBBCA",
"M. c #4F9CEA",
"N. c #599AE8",
"B. c #4F9BF3",
"V. c #5196F4",
"C. c #6094E5",
"Z. c #59A2EA",
"A. c #77C0CD",
"S. c #888887",
"D. c #908F8B",
"F. c #99958C",
"G. c #818D9A",
"H. c #989590",
"J. c #B8B39C",
"K. c #B4AE97",
"L. c #88ADAD",
"P. c #99B3AD",
"I. c #82B6BA",
"U. c #98BAB7",
"Y. c #87ABBF",
"T. c #BFBAA2",
"R. c #C0BDA5",
"E. c #C9C5A8",
"W. c #D1CDAE",
"Q. c #D0CFB0",
"!. c #E0DCB8",
"~. c #8AA5C3",
"^. c #87BFC9",
"/. c #9FBBCE",
"(. c #93BFD3",
"). c #8AC4CB",
"_. c #97C7C5",
"`. c #92C8C8",
"'. c #87C6D7",
"]. c #97C7D6",
"[. c #8BD4DD",
"{. c #ABCAC6",
"}. c #BADBCA",
"|. c #A2C8D3",
" X c #A9D7D6",
".X c #AEE1D7",
"XX c #B3E1D7",
"oX c #C3D5CF",
"OX c #C8E2CF",
"+X c #D4E7CF",
"@X c #DCECCE",
"#X c #D5E8CF",
"$X c #D5ECD1",
"%X c #E2EECD",
"&X c #EBF1CD",
"*X c #E5F0CF",
"=X c #F3F5CC",
/* pixels */
"                              *.*.                              ",
"                -.                > 6         -.@.              ",
"                        t / _ _ ( H y 6       ..                ",
"                      / ' ..        =.` 7 e                     ",
"          ;.        ( +.                } q         ;.          ",
"          O.-.    i [                     ] 9     *.%.          ",
"          O.      a =.                    %.t e                 ",
"                i '                         ' 6                 ",
"                u ..                        ..e                 ",
"              3 u                         :.  u 4               ",
"              1 G                             ( ;               ",
"            _ 4 H           j.n.'.'.Y.        ' 1               ",
"            ) < H       x.[..X.X X X^.x.5.Y   ) 5 )             ",
"            e ; e     f.c.XX+X].n.z.{.n.4.=   r ; 8             ",
"              - e     b. X@X#X#Xn.k.1.L.2.+   a :               ",
"              4 (   a.c.@X%X&X|.Z.N.,.P j.x +  .i               ",
"              6 }   f._.*X=X@X X{.v.9.d I.m & o.^               ",
"              6 {   d.}.&X&X&XOXv.M.e.l U.5.h { 1 r             ",
"            u 1 {   h.}.&X&X@X].Z.B.w.>.{.7.+ } 4 w             ",
"          ] 8 1 {   d.|.oX@X%X].Z.V.0.j P.4.+ } 4 <             ",
"            2 4 {   i.]./.+X].n.v.N.9.s P.3.@ { 4 <             ",
"              6 {   i.).l.].OX(.Z.C.,.f L.B   { 4 *             ",
"              t {   3.h.~.~.].N.N.r.s $.g.2.  { 4 -             ",
"              i {     3._.s.q.e.<.j P `.s.N % } 3 3             ",
"              i {     u.p.).G.R g y.^.m.5.g * } i               ",
"              ^ X.      5.t.I.}.}.A.3.E m @ 0 ` ^               ",
"            | e ( /       4.x U.{.m W E $ , y a 8 |             ",
"          p p > 3 2 p % O = = 6.6.$ m f # r 3 w 4 G p           ",
"          y y : 3 3 y 2 o o X #.#.X . o 0 u 1 6 ; p y           ",
"        S Z C z A A F K V z ~ W.!.&.V Z K J A A z C A D         ",
"      M b b m L I I I T ! H.J.R.W.T.F.Q W U I M b b b n N       ",
"    c k d v b c n T U 8.S.F.J.K.W.E.F.D.S.! Y n c k k k v       "
};
