/* XPM */
static char *_7e6fb5a012048dcc26a253a0e0ee0d1PsXnntVw7nAX2nGD[] = {
/* columns rows colors chars-per-pixel */
"32 34 195 2 ",
"   c None",
".  c #2E2F36",
"X  c #37333F",
"o  c #5D171C",
"O  c #7C0000",
"+  c #752734",
"@  c #652E35",
"#  c #0F2475",
"$  c #0E267B",
"%  c #0F297F",
"&  c #122675",
"*  c #1B2C73",
"=  c #12297D",
"-  c #132776",
";  c #2D306B",
":  c #35356A",
">  c #202D72",
",  c #573A49",
"<  c #763842",
"1  c #463B63",
"2  c #45434F",
"3  c #48475A",
"4  c #56475D",
"5  c #5B535E",
"6  c #64495A",
"7  c #6D4D59",
"8  c #624E51",
"9  c #774A58",
"0  c #74615B",
"q  c #4E537F",
"w  c #514D6E",
"e  c #63647C",
"r  c #696579",
"t  c #786B77",
"y  c #840507",
"u  c #BB0101",
"i  c #9C2933",
"p  c #A53C24",
"a  c #DA0B0B",
"s  c #C43F25",
"d  c #D53538",
"f  c #C82930",
"g  c #E13838",
"h  c #864D17",
"j  c #AC6416",
"k  c #CF711B",
"l  c #D47110",
"z  c #C4623D",
"x  c #843E4F",
"c  c #C33C40",
"v  c #D73D42",
"b  c #875748",
"n  c #9A6A49",
"m  c #B26F47",
"M  c #A1725D",
"N  c #AB7356",
"B  c #B5744D",
"V  c #A85A6C",
"C  c #987562",
"Z  c #866C72",
"A  c #98687A",
"S  c #A06066",
"D  c #B37F63",
"F  c #AC7170",
"G  c #DD4747",
"H  c #E04848",
"J  c #DC7374",
"K  c #B6876E",
"L  c #A58478",
"P  c #B28974",
"I  c #C88B5D",
"U  c #C18B61",
"Y  c #CE9060",
"T  c #D39C70",
"R  c #DBA26E",
"E  c #D7A376",
"W  c #E3AA73",
"Q  c #0F2C89",
"!  c #122E86",
"~  c #11318D",
"^  c #1B378B",
"/  c #0F3395",
"(  c #0E3399",
")  c #15389A",
"_  c #273B85",
"`  c #0E39A5",
"'  c #0E37A2",
"]  c #113AA4",
"[  c #113EAE",
"{  c #3B4B8E",
"}  c #364887",
"|  c #3D508F",
" . c #394E98",
".. c #3B529C",
"X. c #1945AC",
"o. c #0E40B5",
"O. c #0E44BD",
"+. c #1144B5",
"@. c #1246BC",
"#. c #134ABD",
"$. c #184FBD",
"%. c #204AAC",
"&. c #2247A4",
"*. c #355CB4",
"=. c #2855BD",
"-. c #3A63BD",
";. c #434A86",
":. c #485998",
">. c #525D94",
",. c #59679D",
"<. c #656786",
"1. c #746884",
"2. c #6F708D",
"3. c #656A91",
"4. c #6C749A",
"5. c #7C7C9B",
"6. c #737799",
"7. c #747487",
"8. c #5E70AA",
"9. c #4C65A9",
"0. c #0F46C1",
"q. c #0E4AC5",
"w. c #104FCB",
"e. c #134CC3",
"r. c #1A55C6",
"t. c #1255D2",
"y. c #145BD5",
"u. c #115CDC",
"i. c #0E53D4",
"p. c #2B5FC3",
"a. c #2364D9",
"s. c #3A6CCE",
"d. c #125FE0",
"f. c #1263E3",
"g. c #156AEC",
"h. c #176AE9",
"j. c #146DF2",
"k. c #1576FD",
"l. c #1A73F6",
"z. c #2875EA",
"x. c #267BF5",
"c. c #476FC5",
"v. c #8F6D82",
"b. c #857D87",
"n. c #6F80BB",
"m. c #3B80E9",
"M. c #7899D9",
"N. c #7387C6",
"B. c #4688ED",
"V. c #468CF3",
"C. c #948888",
"Z. c #918688",
"A. c #81829D",
"S. c #988D9C",
"D. c #918A9A",
"F. c #9E9398",
"G. c #8384A4",
"H. c #8C8CAA",
"J. c #8589AE",
"K. c #9393AC",
"L. c #878EB3",
"P. c #8C91B5",
"I. c #8993BA",
"U. c #9495B2",
"Y. c #989AB9",
"T. c #A09CB3",
"R. c #A892A4",
"E. c #9EA1B4",
"W. c #B5AEBA",
"Q. c #CC9E80",
"!. c #D99595",
"~. c #DBAD88",
"^. c #DEB28F",
"/. c #D4AF93",
"(. c #E2BF9E",
"). c #E6B483",
"_. c #DEA4A3",
"`. c #D7B6AF",
"'. c #E4C8AC",
"]. c #94A6CB",
"[. c #A5A5C2",
"{. c #ACADCC",
"}. c #AAABC3",
"|. c #ABB2CC",
" X c #BBBACC",
".X c #B7B8CC",
"XX c #B2B3D2",
"oX c #A6B4D4",
"OX c #C2BBC2",
"+X c #CCCCD6",
"@X c #DBDBDE",
"#X c #D3D3DC",
"$X c #E0D9D2",
"%X c #E1E1DF",
"&X c #DDDDE0",
/* pixels */
"                                                                ",
"                                                                ",
"                  0.@.0.@.w.f.f.h.e.                            ",
"              #.O.[ [ [ O.0.X.$.g.g.l.y.    -                   ",
"            X.] Q $ $ % ] ^ Z 1.$.k.k.l.e.$ &                   ",
"            ~ $ & & $ & $ 1 I E 3.g.k.V.l.@.=                   ",
"                  Q ` ` ` ;.N 2.:.p.a.s.l.j.@.#.                ",
"                @.[ 0.q.t.h.p.X.s.8.N.a.f.k.u.t.                ",
"              @.@.q.t.g.z.B.B.z.9.{ ,.-.y.j.f.( ]               ",
"            @.0.t.w.u.r.c.M.M.z.X.I.+XW.:.#.X.{ *               ",
"            0.O.#./ Q ` f.x.x.f....X%X+Xn.:._ I.                ",
"          @.@./ Q $ ) f.k.j.u.q.=.oX%X+XK.H.3 A.                ",
"          @./ # # / y.g.d.q.@...8.].&XW.r S.5 3                 ",
"          ~ - - ( 0.u.w.[ ( ;.K ^.~.`.OXF.Q.0 . 2               ",
"          -     0.q.q.( Q # 4 U L R W ^.~.R n                   ",
"                @.O./ # # # * 7 b m I R Y B                     ",
"                @.( # # # $ $ - ; 8 8 0                         ",
"                [ $ & # # : 9 4 = | Z D.                        ",
"                ! >.,.# : M N 1 *.F (.$X/.                      ",
"                } L._ * M K r } 9.I ).'.T Z                     ",
"                        L Y..XY.D.M R R P U.{.H.                ",
"                      t Y.&X$X&X+XF.M K R.E.[.|.5.              ",
"                      2.OX&X@X.X+XU.| ..J.G.U.XXJ.              ",
"                        [.}..X{.[.H.| X.6.<.5.Y.5.              ",
"                          >.3.J.U.W.:.X.4.3.5.b.                ",
"                          6.>...3.K.:.*.I.                      ",
"                        2.U.{.|.G.6.{.oXY.                      ",
"                        3 9 V A w e 5.v.x                       ",
"                        h z J F t 8 @ y u v `._.                ",
"                      j k s H !.S + y y i R.}.g a               ",
"                      l p f d G d @ o + 1.U.A d g g d           ",
"                        8 t Z.Z.Z.2 X 4 r 7.b.C.C.C.t           ",
"                                                                ",
"                                                                "
};
