/* XPM */
static char *_9b178dfa7ac460683d8ea7a5fb96e83wFqNRLsDWCuZ8ajN[] = {
/* columns rows colors chars-per-pixel */
"32 32 142 2 ",
"   c #661C00",
".  c #6D1D00",
"X  c #731E00",
"o  c #6E2201",
"O  c #742300",
"+  c #7B2601",
"@  c #762802",
"#  c #7C2B03",
"$  c #7C2D0B",
"%  c #7B3006",
"&  c #7E320B",
"*  c #7E2F10",
"=  c #7D3312",
"-  c #7C3D1E",
";  c #802600",
":  c #832C03",
">  c #8B2D01",
",  c #822E0A",
"<  c #902E09",
"1  c #843105",
"2  c #8C3204",
"3  c #8B3806",
"4  c #84330B",
"5  c #8C350B",
"6  c #8D390D",
"7  c #933405",
"8  c #993605",
"9  c #953906",
"0  c #993806",
"q  c #92350A",
"w  c #99360A",
"e  c #943A0C",
"r  c #9B3C0C",
"t  c #833511",
"y  c #8A3611",
"u  c #873913",
"i  c #8C3A13",
"p  c #803F1F",
"a  c #8B3C1B",
"s  c #943C13",
"d  c #9B3E12",
"f  c #933F1A",
"g  c #A13D0C",
"h  c #A13E12",
"j  c #97410E",
"k  c #9B400D",
"l  c #84421F",
"z  c #8A411E",
"x  c #944115",
"c  c #994014",
"v  c #9B4014",
"b  c #984116",
"n  c #9D4014",
"m  c #9C4114",
"M  c #9C4115",
"N  c #9F4314",
"B  c #9C4317",
"V  c #9C4214",
"C  c #95421A",
"Z  c #9E4219",
"A  c #9D441A",
"S  c #9C451A",
"D  c #9F461A",
"F  c #9D451D",
"G  c #9B441B",
"H  c #97481F",
"J  c #9C491F",
"K  c #9D481C",
"L  c #A0400E",
"P  c #A2410E",
"I  c #A2400F",
"U  c #A5410D",
"Y  c #AF460F",
"T  c #A34311",
"R  c #A04113",
"E  c #A24013",
"W  c #A14212",
"Q  c #A24212",
"!  c #A24313",
"~  c #A44213",
"^  c #A54411",
"/  c #A14214",
"(  c #A34215",
")  c #A44215",
"_  c #A74214",
"`  c #A34414",
"'  c #A24615",
"]  c #A34416",
"[  c #A44414",
"{  c #A74715",
"}  c #A54616",
"|  c #A34314",
" . c #A84413",
".. c #AD4414",
"X. c #A94514",
"o. c #A54A15",
"O. c #A64D15",
"+. c #A24814",
"@. c #AD4915",
"#. c #AE4A16",
"$. c #AA4817",
"%. c #A44318",
"&. c #A0471B",
"*. c #A64518",
"=. c #A44519",
"-. c #A2451C",
";. c #A4471C",
":. c #A4461A",
">. c #A9471A",
",. c #AA461B",
"<. c #A64A1B",
"1. c #A0491C",
"2. c #A34A1C",
"3. c #A9481B",
"4. c #A8491D",
"5. c #A94A1E",
"6. c #AE4C1D",
"7. c #AA4A1B",
"8. c #B44817",
"9. c #B04C18",
"0. c #B54D1A",
"q. c #B74F1A",
"w. c #B14C1E",
"e. c #B54F1F",
"r. c #B34A1D",
"t. c #8F4522",
"y. c #9A4621",
"u. c #984620",
"i. c #9D4D22",
"p. c #A64620",
"a. c #A44821",
"s. c #A54B21",
"d. c #AC4B21",
"f. c #A84D20",
"g. c #AA4A21",
"h. c #A75422",
"j. c #AA5725",
"k. c #AA5829",
"l. c #BA5924",
"z. c #BB5628",
"x. c #BA552B",
"c. c #AD5B32",
/* pixels */
"8.e.5.b F f Z d q.Y ..z.x.) q.@.v J u.f 6.9.o.O.l.@.^ d 2.s 7.w.",
"g r q 2 ; # + > r 8 8 >.) w g 8 2 # # ; r 0 9 r W r 7 ; # # d w ",
"g r e 6 : 1 # 5 M r M f.&.v k 9 6 4 & : r P d d d.d 6 4 4 # b d ",
"> > > ; + O + # 4 , 5 2 5 2 > > # O O # 2 > : 5 q q ; O O O 5 : ",
" .r P W D e n M i y i 2 ] W r M ] r W W n q 5 5 q E [ w W <.D 5 ",
") r r r d q d r 4 $ $ + =.[ d n 9 8 r w 9 5 4 # 5 d r 8 P =.v 6 ",
"-.d n d s s W r i = * , a.;.b b v q d d M 5 & # i M M 9 E 5.D 6 ",
"s : 5 2 : : > > 1 O O O y 5 2 2 : : 5 5 2 # @ o : 2 : : 2 q e ; ",
"6 6 5 b [ ^ 9 N n M i i u 6 ] P 6 6 i y i s 4 F 5.%.q D s 6 s 6 ",
"# 1 # f X.U r N 0 w 5 & $ 4 r r e 4 # $ 4 # # 2.>.*.s b i 3 : ; ",
"4 4 # G 5.^ n d r r i 4 $ u r r e u & = = $ 4 F ) ) d b x 6 4 , ",
"O + O 5 q 7 q > > 2 # # O + 7 > : # O O # O X 6 9 9 5 5 1 # X + ",
"q d d M e h h w 9 e 5 f f e X.^ v e &.E q &.S 3 q q 5 f M r w [ ",
"q d d d q ;.,.r : : + s d 7 X.) M e r 0 0 <.N s : ; # y d 0 r 7.",
"e M r d s -.2.s 4 t # x b e <.=.v n g r r 2.J i , : $ a b 9 n 5.",
"; 2 > q > 5 q 1 # @ O : : : e q 5 2 > 2 2 q 6 : + + o # 5 : 9 e ",
"i 5 s a.E =.9 v x 6 E r q 2.B 6 q q 5 b n r 7 M C u u i 4 b [ ^ ",
"# # f ;.=.W r +.e 9 W r s s.G 6 : ; 4 b r 0 8 ] i u , , # 2.$. .",
"& $ C a.=.^ w W 9 9 r d d a.D e : : y F r w r M C a & $ # 5.^  .",
"4 # : 5 w r 2 9 > 7 2 > > s e ; + X + 5 7 > 2 q ; + O + + 9 7 w ",
"k.G B 5 e 5 y 4 M w q &.&.r r d y a a 4 e E M q =.d e s d r q i ",
"j.&.&.q 4 $ = , d r e 2.&.r r d y & $ # d d e r X.W e s W 7 5 $ ",
"h.2.] d 4 t $ 4 b r e 2.=.d h d i t $ : M d e r #. .n d r w u = ",
"i.s 7 > + O O + 2 2 > e e 7 7 7 : O O O 2 2 2 > w 7 5 2 > > # o ",
"l u ) h E 5 d 9 9 n d 5 6 5 q d f 6 d W r 7 d e 5 s i : r W b 4 ",
"- z 5.r.=.d g 0 k k d s 5 : e v d e 5.7.W r E s 4 & $ # &.7.2.e ",
"p t.g.$.E d W w j v d q y # i x e 9 6.7.n d d q i & 4 # 2.&.D 6 ",
"= u s w e 2 7 2 1 3 > > , @ # 1 2 2 r e e 2 2 2 # O O X s x s : ",
"H C 6 f u 6 6 x 6 6 h d 5 u 4 6 d r e 6 u 4 e M 6 i b e s 5 u u ",
"c.i.4 , % # 5 J s s ,.g.s u # u N N 5 4 4 # e f.b x r n s u & 4 ",
"c.i.a % & # 5 G i b g.p.f t @ i b v u t $ $ s s.u.C d M i t $ , ",
"4 $ o       X # + ; < > O .   O ; + O o   . + 1 # + + ; O O . . "
};
