/* XPM */
static char *_055f74c92f245a68767be5b93e4fe77W1oMQGd5NSO3efeu[] = {
/* columns rows colors chars-per-pixel */
"32 32 134 2 ",
"   c None",
".  c #874209",
"X  c #8B4409",
"o  c #90470A",
"O  c #94490A",
"+  c #9B4D0B",
"@  c #A04F0B",
"#  c #A4520B",
"$  c #AB560C",
"%  c #AD590D",
"&  c #B45D0E",
"*  c #BA5F0E",
"=  c #AE5E10",
"-  c #B7600E",
";  c #BB630F",
":  c #B76311",
">  c #BA6411",
",  c #BF6C13",
"<  c #C75D0B",
"1  c #CA5E0B",
"2  c #D65D08",
"3  c #C2620E",
"4  c #C3680F",
"5  c #D5690D",
"6  c #DC680B",
"7  c #C46610",
"8  c #C46B11",
"9  c #CC6C11",
"0  c #D86F11",
"q  c #C57213",
"w  c #CB7313",
"e  c #CC7B14",
"r  c #D07511",
"t  c #DA7411",
"y  c #D47913",
"u  c #DA7C13",
"i  c #E6690A",
"p  c #ED730C",
"a  c #E37B11",
"s  c #EF7F10",
"d  c #D48316",
"f  c #DD8215",
"g  c #D88B17",
"h  c #DA8C18",
"j  c #E38514",
"k  c #ED8112",
"l  c #E58915",
"z  c #EA8D16",
"x  c #E48D18",
"c  c #F38311",
"v  c #F88511",
"b  c #F78811",
"n  c #F88C13",
"m  c #ED9117",
"M  c #E79319",
"N  c #EB951A",
"B  c #EE9C1B",
"V  c #F59316",
"C  c #F89115",
"Z  c #F99917",
"A  c #F09518",
"S  c #F39C1A",
"D  c #F99D19",
"F  c #EEA11B",
"G  c #F3A31C",
"H  c #FAA31B",
"J  c #F6AA1D",
"K  c #F5A81E",
"L  c #F5A91E",
"P  c #F7AB1E",
"I  c #F7A91D",
"U  c #F1AC1F",
"Y  c #F2AF1F",
"T  c #F7AC1E",
"R  c #F7AC1F",
"E  c #F2AA1E",
"W  c #FBAA1D",
"Q  c #F8A91E",
"!  c #F8AB1E",
"~  c #F9AB1E",
"^  c #F9AC1E",
"/  c #F9AC1F",
"(  c #F9AD1F",
")  c #FBAD1E",
"_  c #FAAD1F",
"`  c #FAAE1E",
"'  c #FAAE1F",
"]  c #FBAE1F",
"[  c #FAAF1F",
"{  c #FAAE1F",
"}  c #F8B11F",
"|  c #FAB01F",
" . c #FBB11F",
".. c #EEA720",
"X. c #EEA622",
"o. c #F2A320",
"O. c #F4AA20",
"+. c #F4AA20",
"@. c #F5B120",
"#. c #F7B020",
"$. c #F6B022",
"%. c #F4B124",
"&. c #F6B524",
"*. c #FBB020",
"=. c #FBB120",
"-. c #FAB220",
";. c #FBB320",
":. c #F9B421",
">. c #FBB420",
",. c #FBB621",
"<. c #F8B523",
"1. c #F8B623",
"2. c #F9B724",
"3. c #FBB421",
"4. c #FBB821",
"5. c #F9BA22",
"6. c #FABB22",
"7. c #F8BD23",
"8. c #FBBC22",
"9. c #FABD23",
"0. c #FABF23",
"q. c #FCBF23",
"w. c #F9B924",
"e. c #FBBC24",
"r. c #FBBD25",
"t. c #FBBE25",
"y. c #FBBF27",
"u. c #FBBF28",
"i. c #FAC024",
"p. c #FBC025",
"a. c #FBC224",
"s. c #FFC926",
"d. c #FFCA26",
"f. c #FFCD27",
/* pixels */
"                            B                                   ",
"                      &.E l w 8 > , w                           ",
"                  %.i.d.Y 8 + X . . + =                         ",
"                X.7.f.Y q + o O + O o O % q                     ",
"                E d.@.y $ + $ & ; 8 8 ; # # q                   ",
"              M G J l 4 # & < 2 i s S G f - %                   ",
"              z A l u & $ 5 k z z V v H -.N ; &                 ",
"            M G G l f $ 3         @.^ n H -.M - >               ",
"            B | G G d $ 0           2.| n Q ^ f &               ",
"            @.-.K 7.e &               >.~ C ^ S 8 :             ",
"          u.6.^ T i.q *                 >.D D ~ f ;             ",
"          r.>.^ J i.8 3                 O.^ V ~ N 8 >           ",
"          r.>.^ J 7.q 3                   T S G S y :           ",
"          r.-.~ K 6.w 3                   B G A S j ;           ",
"          w.| ~ G K w ;                   N S m S l 8           ",
"          o.K ^ S z r *                     B A S m w >         ",
"          N S ^ G z u *                     J V S | d >         ",
"            B ^ J m f ;                     r.Z S 7.h :         ",
"            N ^ ~ S j 4 3                   i.Z S q.g :         ",
"            N ^ ^ J m w *                   >.V S 6.d :         ",
"            N T -.^ G f & 9                 B c m F q >         ",
"              J -.^ ~ N 8 &                 z c z f - 8         ",
"              G -.-.^ J f & 7             X.A D M 9 % w         ",
"                -.,.-.^ G 9 % 9           G b ^ y & &           ",
"                O.>.-.-.^ N ; $ 9       -.p k d % # 8           ",
"                  -.,.-.-.^ x & $ 3 t a 6 1 & + + % 8           ",
"                    >.,.-.-.^ x & # # $ @ O . o # >             ",
"                      >.,.-.-.^ N 8 # O X . O $ ;               ",
"                        >.,.,.-.-.G f ; % % & & w               ",
"                          >.,.,.,.,.^ S j f y w                 ",
"                              -.>.>.-.T N x                     ",
"                                                                "
};
